<svg width="147" height="132" fill="none" xmlns="http://www.w3.org/2000/svg"><path d="M100.973 106.093l.289.407-.289-.407zM.7 122.844a.5.5 0 00-.1.7l2.7 3.6a.5.5 0 00.8-.6l-2.4-3.2 3.2-2.401a.5.5 0 10-.6-.799l-3.6 2.7zM143.243.446c.218 1.59.412 3.171.582 4.742l.994-.107a170.36 170.36 0 00-.585-4.771l-.991.136zm.945 8.543c.269 3.221.431 6.4.484 9.533l1-.017a145.044 145.044 0 00-.487-9.6l-.997.084zm.494 13.35a122.353 122.353 0 01-.477 9.52l.996.09c.283-3.15.442-6.35.481-9.599l-1-.012zm-.882 13.313c-.395 3.187-.923 6.32-1.588 9.397l.978.211c.671-3.107 1.204-6.27 1.602-9.485l-.992-.123zm-2.462 13.107a96.676 96.676 0 01-2.81 9.1l.94.342a97.53 97.53 0 002.838-9.194l-.968-.248zm-4.186 12.653a92.394 92.394 0 01-4.067 8.608l.881.473a93.252 93.252 0 004.111-8.701l-.925-.38zm-5.939 11.926a93.84 93.84 0 01-5.26 7.941l.805.594a95.223 95.223 0 005.316-8.026l-.861-.509zm-7.581 10.965a102.057 102.057 0 01-6.29 7.148l.72.694a103.152 103.152 0 006.351-7.218l-.781-.624zm-8.986 9.844a115.607 115.607 0 01-7.134 6.332l.633.774a116.656 116.656 0 007.196-6.387l-.695-.72zm-10.123 8.7a128.933 128.933 0 01-3.84 2.838l.579.815c1.322-.94 2.612-1.894 3.87-2.86l-.609-.793zm-3.84 2.838a72.025 72.025 0 01-4.381 2.88l.519.854a72.569 72.569 0 004.441-2.919l-.579-.815zm-8.027 4.96a89.628 89.628 0 01-9.536 4.39l.366.931a90.87 90.87 0 009.642-4.44l-.472-.881zm-13.48 5.849a118.243 118.243 0 01-10.081 2.989l.243.97a119.294 119.294 0 0010.166-3.014l-.328-.945zm-14.18 3.946c-3.463.753-6.93 1.368-10.363 1.868l.145.99a153.576 153.576 0 0010.43-1.88l-.212-.978zm-14.54 2.424c-3.573.43-7.086.742-10.49.959l.063.998c3.421-.218 6.954-.532 10.547-.964l-.12-.993zm-14.702 1.183c-3.7.159-7.235.213-10.538.194l-.006 1c3.318.019 6.87-.035 10.587-.195l-.043-.999zm-14.757.131c-4.007-.097-7.569-.29-10.533-.504l-.072.998c2.979.214 6.556.408 10.58.506l.025-1zm-14.737-.851a150.757 150.757 0 01-3.84-.405c-.441-.053-.78-.096-1.007-.126l-.257-.035-.065-.009-.016-.002-.003-.001H1.07l-.071.495-.07.495.001.001h.005l.017.003.067.009.262.035a121.288 121.288 0 004.885.536l.093-.996zm94.713-17.234l.579.814-.579-.814zM.4 122.444a1 1 0 00-.2 1.4l5.402 7.199a1 1 0 101.6-1.2L2.4 123.444l6.399-4.801a1 1 0 00-1.2-1.6l-7.2 5.401zM142.748.514c.217 1.586.411 3.162.58 4.728l1.988-.215c-.171-1.585-.367-3.18-.587-4.785l-1.981.272zm.942 8.516c.268 3.211.43 6.379.482 9.5l2-.033c-.054-3.168-.218-6.38-.489-9.633l-1.993.166zm.492 13.303a121.8 121.8 0 01-.475 9.481l1.992.18c.284-3.165.444-6.378.483-9.638l-2-.024zm-.879 13.258a106.14 106.14 0 01-1.579 9.353l1.954.422c.675-3.123 1.21-6.3 1.61-9.53l-1.985-.245zm-2.45 13.044a95.658 95.658 0 01-2.795 9.053l1.88.684a97.97 97.97 0 002.853-9.241l-1.938-.496zm-4.163 12.587a91.72 91.72 0 01-4.046 8.562l1.762.946a93.92 93.92 0 004.134-8.748l-1.85-.76zm-5.907 11.862a93.766 93.766 0 01-5.232 7.899l1.61 1.186a95.544 95.544 0 005.343-8.067l-1.721-1.018zm-7.542 10.906a101.396 101.396 0 01-6.259 7.113l1.439 1.39a103.297 103.297 0 006.382-7.254l-1.562-1.249zm-8.942 9.797a115.358 115.358 0 01-7.103 6.305l1.266 1.548a117.143 117.143 0 007.226-6.414l-1.389-1.44zm-10.08 8.664a132.95 132.95 0 01-3.826 2.827l1.159 1.629a131.48 131.48 0 003.885-2.87l-1.218-1.586zm-3.826 2.827a71.8 71.8 0 01-4.35 2.859l1.037 1.71a73.152 73.152 0 004.472-2.94l-1.159-1.629zm-7.973 4.926a89.198 89.198 0 01-9.483 4.366l.732 1.861a91.291 91.291 0 009.695-4.464l-.944-1.763zm-13.407 5.818a117.71 117.71 0 01-10.04 2.976l.486 1.94a119.475 119.475 0 0010.21-3.027l-.656-1.889zm-14.124 3.93a152.38 152.38 0 01-10.328 1.862l.289 1.979a153.552 153.552 0 0010.464-1.887l-.424-1.954zm-14.492 2.415c-3.563.43-7.068.74-10.463.957l.127 1.996c3.43-.219 6.971-.533 10.575-.967l-.24-1.986zm-14.665 1.181c-3.69.158-7.218.211-10.514.193l-.01 2a218.63 218.63 0 0010.61-.195l-.086-1.998zm-14.723.13c-3.998-.097-7.552-.29-10.51-.502l-.143 1.994c2.986.215 6.571.41 10.604.507l.05-1.999zm-14.703-.848a148.79 148.79 0 01-4.828-.53l-.254-.034-.063-.009-.016-.002-.003-.001-.142.99-.141.99.002.001h.005l.017.003a16.105 16.105 0 01.334.045c.233.03.577.074 1.025.128.897.107 2.209.254 3.878.41l.186-1.991z" fill="#EF4135"/></svg>