<svg version="1.1" id="Capa_1" fill="#fff" xmlns="http://www.w3.org/2000/svg" x="0" y="0" viewBox="0 0 512 512" xml:space="preserve"><path d="M504.396 0H7.604A7.605 7.605 0 000 7.604v496.792A7.605 7.605 0 007.604 512h496.792a7.605 7.605 0 007.604-7.604V7.604A7.605 7.605 0 00504.396 0zM376.65 15.208a621.206 621.206 0 00-27.711 7.169c-41.516 11.773-83.158 28.156-123.79 48.688-4.613-2.909-13.329-8.806-22.374-17.04-10.05-9.149-22.164-22.792-27.304-38.817H376.65zm-216.987 0c7.392 30.068 34.402 52.839 50.07 63.866-45.605 24.374-77.409 47.377-91.213 57.984-25.986-52.692-69.622-99.735-91.915-121.85h133.058zm-144.455 10.2c21.852 21.719 66.639 69.844 91.37 121.869-35.976 34.192-74.638 46.365-91.37 50.269V25.408zm0 187.754c15.481-3.14 55.121-14.022 94.122-47.845.443 8.606.8 20.558.589 35.252a7.602 7.602 0 007.494 7.711l.112.001a7.605 7.605 0 007.601-7.495c.348-24.23-.778-41.056-1.421-48.47 6.535-5.162 23.232-17.871 48.037-33.54-.53 8.403-.694 19.555.508 32.112 3.227 33.7 14.997 62.467 34.134 83.598-10.828 20.468-20.527 44.69-26.266 72.231-28.263-12.116-50.713-19.164-61.298-22.219 2.674-20.001 4.308-38.331 5.245-54.539a7.604 7.604 0 00-7.153-8.03c-4.195-.249-7.787 2.959-8.03 7.153-1.776 30.733-6.087 69.199-15.463 112.413-29.801 2.719-61.179 24.086-78.209 37.482V213.162zM261.16 349.567c29.052-31.624 78.197-33.397 97.883-32.707-3.981 32.087-10.15 65.909-19.628 97.397-24.071-26.06-51.591-47.484-78.255-64.69zm30.859 41.097c-70.218 40.111-175.716 43.463-209.012 43.457 17.072-48.655 27.44-94.436 33.614-134.391 25.524 7.617 106.69 34.873 175.398 90.934zm25.645-86.039c-7.464-16.654-31.473-64.56-74.478-99.983a288.827 288.827 0 015.265-6.856c20.183-25.449 38.743-40.111 41.699-42.38 4.242-2.214 34.56-17.725 74.134-30.381 1.303 21.628 3.772 77.539-.479 141.383a918.164 918.164 0 01-3.022 35.287c-9.512-.421-25.441-.352-43.119 2.93zm-15.134 3.573c-22.831 6.556-41.082 17.685-54.448 33.215-18.26-11.004-35.765-20.008-51.059-27.134-.897-.418-1.782-.823-2.672-1.232 7.669-39.445 24.068-71.92 40.048-95.931 37.506 31.312 59.975 73.717 68.131 91.082zM15.208 496.792v-98.063c4.357-3.802 14.243-12.065 26.815-20.302 17.632-11.551 33.924-18.722 47.777-21.113-10.375 43.234-25.884 90.647-48.849 139.477H15.208zm42.527-.001a730.09 730.09 0 0019.759-47.48c1.828.027 4.074.048 6.711.048 14.729 0 41.44-.641 73.116-4.332 61.332-7.148 110.722-21.923 146.951-43.928 10.388 9.24 20.375 19.187 29.71 29.875-8.651 24.664-19.598 47.321-33.434 65.817H57.735zm261.388.001c16.997-25.703 30.718-59.153 40.865-99.707 2.703-10.803 5.149-22.136 7.352-33.94 7.04-3.023 24.565-9.766 47.017-12.794.433 25.264 3.968 99.51 29.786 146.441h-125.02zm177.669-151.067a143.067 143.067 0 00-17.912-6.39 7.604 7.604 0 10-4.14 14.634 127.5 127.5 0 0122.052 8.523v134.301h-34.907c-28.283-42.622-31.883-123.565-32.314-147.809 7.406-.326 15.155-.161 23.094.711 4.173.463 7.93-2.554 8.389-6.728s-2.554-7.93-6.728-8.389c-35.568-3.906-66.993 4.776-83.941 10.972 3.879-24.336 6.762-50.52 8.609-78.339.16-2.406.309-4.8.45-7.182 5.24-4.679 23.686-21.705 43.465-46.49a387.735 387.735 0 003.829-4.885c8.717 15.284 28.787 41.343 70.054 58.048v79.023zM379.239 120.526c25.793-7.263 54.344-12.655 81.654-12.341-7.931 37.247-31.015 72.201-49.688 95.637-11.453 14.373-22.592 26.165-30.687 34.212 2.158-55.608-.228-101.332-1.279-117.508zM496.792 250.16c-39.762-18.002-55.517-45.615-59.97-55.176 20.849-29.716 34.074-58.539 39.439-85.988 7.007.687 13.874 1.826 20.531 3.471V250.16zm0-153.309c-37.274-8.239-83.625-3.586-137.978 13.893-22.915 7.37-42.584 15.566-56.223 21.756l13.333-27.218a7.604 7.604 0 10-13.658-6.69l-22.253 45.425c-5.274 4.122-23.304 18.968-43.147 43.903a303.048 303.048 0 00-22.539 32.488c-33.03-40.322-28.186-97.349-26.347-111.59a730.239 730.239 0 0143.164-23.752c32.112-16.28 64.859-29.896 97.653-40.633l-14.563 29.729a7.604 7.604 0 0013.658 6.691l20.863-42.588c1.445-.421 2.89-.85 4.333-1.259 48.394-13.724 96.696-21.016 143.704-21.729v81.574z"/></svg>