<svg height="512" fill="#fff" width="512" xmlns="http://www.w3.org/2000/svg"><path d="M336 8H176a40.04 40.04 0 00-40 40v416a40.04 40.04 0 0040 40h160a40.04 40.04 0 0040-40V48a40.04 40.04 0 00-40-40zM192 24h16v16a8 8 0 01-16 0zm168 440a24.032 24.032 0 01-24 24H176a24.032 24.032 0 01-24-24V48a24.032 24.032 0 0124-24v16a24 24 0 0048 0V24h112a24.032 24.032 0 0124 24z"/><path d="M336 440h-48a8 8 0 000 16h48a8 8 0 000-16zm0 24h-32a8 8 0 000 16h32a8 8 0 000-16zm-80-336a24 24 0 10-24-24 24.027 24.027 0 0024 24zm0-32a8 8 0 11-8 8 8.009 8.009 0 018-8zm-56 32a24 24 0 10-24-24 24.027 24.027 0 0024 24zm0-32a8 8 0 11-8 8 8.009 8.009 0 018-8zm112 32a24 24 0 10-24-24 24.027 24.027 0 0024 24zm0-32a8 8 0 11-8 8 8.009 8.009 0 018-8zm-56 88a24 24 0 10-24-24 24.027 24.027 0 0024 24zm0-32a8 8 0 11-8 8 8.009 8.009 0 018-8zm-56 32a24 24 0 10-24-24 24.027 24.027 0 0024 24zm0-32a8 8 0 11-8 8 8.009 8.009 0 018-8zm112 32a24 24 0 10-24-24 24.027 24.027 0 0024 24zm0-32a8 8 0 11-8 8 8.009 8.009 0 018-8zm-56 88a24 24 0 10-24-24 24.027 24.027 0 0024 24zm0-32a8 8 0 11-8 8 8.009 8.009 0 018-8zm32 136a32 32 0 10-32 32 32.036 32.036 0 0032-32zm-32 16a16 16 0 1116-16 16.019 16.019 0 01-16 16zm-56-120a24 24 0 10-24-24 24.027 24.027 0 0024 24zm0-32a8 8 0 11-8 8 8.009 8.009 0 018-8zm112 32a24 24 0 10-24-24 24.027 24.027 0 0024 24zm0-32a8 8 0 11-8 8 8.009 8.009 0 018-8zM176.44 336h24.23a8 8 0 007.89-6.677 39.928 39.928 0 0132.763-32.763 8 8 0 006.677-7.89v-24.231a8 8 0 00-8.879-7.951 80.036 80.036 0 00-70.633 70.633A8 8 0 00176.44 336zM232 274.026v8.3A55.958 55.958 0 00194.324 320h-8.3A64.579 64.579 0 01232 274.026zm9.323 117.414a39.928 39.928 0 01-32.763-32.763 8 8 0 00-7.89-6.677h-24.23a8 8 0 00-7.952 8.879 80.036 80.036 0 0070.633 70.633 7.874 7.874 0 00.879.049 8 8 0 008-8V399.33a8 8 0 00-6.677-7.89zM232 413.974A64.579 64.579 0 01186.027 368h8.3A55.958 55.958 0 00232 405.676zm111.512-53.095A8 8 0 00335.56 352h-24.23a8 8 0 00-7.89 6.677 39.928 39.928 0 01-32.763 32.763 8 8 0 00-6.677 7.89v24.231a8 8 0 008 8 7.86 7.86 0 00.879-.049 80.036 80.036 0 0070.633-70.633zM280 413.974v-8.3A55.958 55.958 0 00317.676 368h8.3A64.579 64.579 0 01280 413.974zm-7.121-157.486a8 8 0 00-8.879 7.951v24.231a8 8 0 006.677 7.89 39.928 39.928 0 0132.763 32.763 8 8 0 007.89 6.677h24.23a8 8 0 007.952-8.879 80.036 80.036 0 00-70.633-70.633zM317.676 320A55.958 55.958 0 00280 282.324v-8.3A64.579 64.579 0 01325.973 320zM200 440h-24a8 8 0 00-8 8v24a8 8 0 008 8h24a8 8 0 008-8v-24a8 8 0 00-8-8zm-8 24h-8v-8h8z"/></svg>