<svg version="1.1" id="Capa_1" fill="#fff" xmlns="http://www.w3.org/2000/svg" x="0" y="0" viewBox="0 0 512 512" xml:space="preserve"><path d="M506.041 291.806l-35.844-35.844 35.844-35.844c7.808-7.807 7.807-20.465 0-28.273s-20.465-7.808-28.273 0l-35.844 35.844-35.844-35.844c-7.807-7.808-20.465-7.807-28.273 0s-7.808 20.465 0 28.273l35.844 35.844-35.844 35.844c-7.808 7.807-7.808 20.465 0 28.273 3.903 3.903 9.019 5.856 14.136 5.856s10.233-1.952 14.136-5.856l35.844-35.844 35.844 35.844c3.903 3.903 9.019 5.856 14.136 5.856s10.233-1.952 14.136-5.856c7.81-7.807 7.81-20.465.002-28.273zM295.166 4.873C272.465-4.699 247.404.04 229.765 17.24c-.415.405-.812.827-1.19 1.266l-113.27 131.498H80.071c-44.094 0-79.968 35.874-79.968 79.968v51.979c0 44.094 35.874 79.968 79.968 79.968h35.235l113.27 131.498c.378.439.775.862 1.19 1.266 11.658 11.367 26.532 17.317 41.826 17.316 7.932 0 15.978-1.601 23.743-4.875 22.596-9.527 36.633-30.695 36.633-55.242 0-11.042-8.95-19.992-19.992-19.992-11.042 0-19.992 8.95-19.992 19.992 0 12.306-9.325 17.194-12.183 18.399-2.855 1.203-12.716 4.422-21.584-3.716L139.618 328.881a19.99 19.99 0 00-15.147-6.944h-44.4c-22.047 0-39.984-17.937-39.984-39.984v-51.979c0-22.047 17.937-39.984 39.984-39.984h44.4a19.995 19.995 0 0015.147-6.944L258.216 45.361c8.772-8.045 18.576-4.84 21.415-3.644 2.898 1.221 12.353 6.176 12.353 18.615v291.592c0 11.042 8.95 19.992 19.992 19.992s19.992-8.95 19.992-19.992V60.332c.001-24.637-14.101-45.887-36.802-55.459z"/></svg>