<svg width="178" height="97" fill="none" xmlns="http://www.w3.org/2000/svg"><rect x="69" y="30" width="60" height="18" rx="3" fill="#3451A6"/><path d="M73.722 57.482h-1.67V62h-3.085V49.203h5.036c1.517 0 2.704.337 3.56 1.01.855.675 1.283 1.627 1.283 2.857 0 .89-.182 1.63-.545 2.215-.358.586-.92 1.06-1.688 1.424l2.672 5.16V62h-3.304l-2.26-4.518zm-1.67-2.381h1.95c.587 0 1.026-.153 1.32-.457.298-.311.447-.742.447-1.292 0-.551-.149-.982-.448-1.292-.299-.317-.738-.475-1.318-.475h-1.951v3.516zm16.593 1.476h-4.851v3.05h5.73V62H80.71V49.203h8.833v2.382h-5.748v2.698h4.852v2.294zm5.221 1.081V62h-3.085V49.203h5.107c.978 0 1.843.182 2.593.545.755.358 1.338.87 1.748 1.538.417.662.625 1.415.625 2.259 0 1.248-.449 2.247-1.345 2.997-.89.744-2.115 1.116-3.674 1.116h-1.969zm0-2.382h2.022c.597 0 1.051-.149 1.362-.448.316-.299.475-.72.475-1.266 0-.597-.161-1.075-.484-1.432-.322-.358-.761-.54-1.318-.545h-2.057v3.691zm14.344 4.333h-4.228L103.244 62h-3.296l4.694-12.797h2.9L112.271 62h-3.314l-.747-2.39zm-3.489-2.382h2.751l-1.38-4.438-1.371 4.438zM116.498 62h-3.076V49.203h3.076V62zm6.899-4.518h-1.669V62h-3.085V49.203h5.036c1.517 0 2.704.337 3.559 1.01.856.675 1.283 1.627 1.283 2.857 0 .89-.181 1.63-.544 2.215-.358.586-.92 1.06-1.688 1.424l2.672 5.16V62h-3.305l-2.259-4.518zm-1.669-2.381h1.951c.586 0 1.025-.153 1.318-.457.299-.311.448-.742.448-1.292 0-.551-.149-.982-.448-1.292-.299-.317-.738-.475-1.318-.475h-1.951v3.516z" fill="#3451A6"/><path d="M83.724 39.015c0 1.236-.197 2.302-.59 3.199-.392.89-.943 1.588-1.652 2.092l2.286 1.793-1.152 1.063-2.698-2.144a5.494 5.494 0 01-1.336.158c-1.008 0-1.901-.246-2.68-.739-.78-.497-1.386-1.204-1.82-2.118-.428-.92-.647-1.983-.66-3.19v-.923c0-1.23.215-2.317.642-3.26.428-.944 1.032-1.665 1.811-2.163.785-.504 1.682-.756 2.69-.756 1.03 0 1.936.25 2.715.747.785.498 1.389 1.216 1.81 2.154.423.931.634 2.021.634 3.27v.817zm-1.688-.827c0-1.505-.302-2.666-.905-3.48-.598-.82-1.453-1.23-2.567-1.23-1.06 0-1.898.407-2.513 1.221-.61.809-.923 1.934-.94 3.375v.94c0 1.465.304 2.62.913 3.463.616.844 1.468 1.266 2.558 1.266 1.09 0 1.934-.395 2.531-1.186.598-.797.906-1.937.923-3.42v-.949zm13.298-5.985v8.701c-.006 1.207-.387 2.195-1.143 2.962-.75.768-1.77 1.199-3.058 1.292l-.448.018c-1.4 0-2.517-.378-3.35-1.134-.831-.756-1.253-1.796-1.265-3.12v-8.719h1.67v8.666c0 .926.255 1.647.765 2.162.51.51 1.236.765 2.18.765.955 0 1.684-.255 2.188-.765.51-.51.765-1.227.765-2.153v-8.675h1.696zM99.808 45H98.12V32.203h1.688V45zm12.506-4.06c-.158 1.353-.659 2.399-1.502 3.137-.838.733-1.955 1.099-3.349 1.099-1.512 0-2.725-.542-3.639-1.626-.908-1.084-1.362-2.534-1.362-4.35v-1.231c0-1.19.211-2.236.633-3.138.427-.902 1.031-1.594 1.81-2.074.78-.486 1.682-.73 2.707-.73 1.36 0 2.45.381 3.27 1.143.82.756 1.298 1.805 1.432 3.146h-1.696c-.146-1.02-.466-1.757-.958-2.214-.486-.457-1.169-.686-2.048-.686-1.078 0-1.924.399-2.54 1.195-.609.797-.914 1.931-.914 3.402v1.239c0 1.389.29 2.493.87 3.313.58.82 1.392 1.23 2.435 1.23.937 0 1.655-.21 2.153-.632.504-.428.838-1.169 1.002-2.223h1.696zm5.564-1.89l-1.565 1.626V45h-1.687V32.203h1.687v6.328L122 32.203h2.039l-5.036 5.651L124.435 45h-2.022l-4.535-5.95z" fill="#fff"/><rect x="135" y="30" width="43" height="28" rx="3" fill="#3451A6"/><path d="M156.013 40.585h-3.841V51h-3.085V40.585h-3.771v-2.382h10.697v2.382zm6.416 6.934l2.549-9.316h3.445L164.116 51h-3.375l-4.271-12.797h3.419l2.54 9.316z" fill="#fff"/><rect x="145" y="61" width="24" height="1" rx=".5" fill="#3451A6"/><rect x="153" y="59" width="6" height="1" rx=".5" fill="#3451A6"/></svg>