<svg id="Capa_1" fill="#3451A6" height="512" viewBox="0 0 512.042 512.042" width="512" xmlns="http://www.w3.org/2000/svg"><path d="M190.838 359.375a8.529 8.529 0 010 12.068L75.669 486.613c-6.712 6.712-15.637 10.408-25.13 10.408s-18.417-3.696-25.13-10.408C18.697 479.899 15 470.974 15 461.482c0-9.493 3.697-18.417 10.41-25.13l37.038-37.038a7.5 7.5 0 00-10.606-10.607l-37.038 37.038C5.257 435.291 0 447.983 0 461.482s5.257 26.19 14.803 35.737c9.546 9.545 22.237 14.802 35.736 14.802 13.5 0 26.192-5.257 35.736-14.802L201.444 382.05a23.38 23.38 0 006.893-16.642c0-4.3-1.146-8.422-3.293-12.022l24.099-24.099c69.693 48.165 166.886 41.996 229.983-21.105 70.551-70.547 70.555-184.735.001-255.289C425.113 18.875 379.467.021 331.482.021a182.041 182.041 0 00-32.753 2.98c-4.074.748-6.771 4.657-6.022 8.731s4.653 6.77 8.731 6.022a166.945 166.945 0 0130.045-2.734c43.784 0 85.652 17.089 117.038 48.479 64.685 64.683 64.696 169.385 0 234.075-59.101 59.103-151.064 63.869-215.418 16.11-.092-.075-.178-.156-.274-.228a167.74 167.74 0 01-34.265-34.266c-.072-.097-.154-.184-.231-.277-63.511-85.58-30.279-210.871 71.01-251.835a7.502 7.502 0 00-5.625-13.907C155.169 57.082 118.291 189.63 182.734 282.877l-24.1 24.1a23.388 23.388 0 00-12.021-3.292 23.38 23.38 0 00-16.641 6.893L76.59 363.959a7.5 7.5 0 0010.606 10.607l53.382-53.382a8.528 8.528 0 0112.069 0zm4.11-17.104l-25.197-25.197 22.1-22.1a184.167 184.167 0 0025.197 25.198z"/><path d="M238.565 273.457c51.281 51.281 134.555 51.283 185.838 0 51.234-51.235 51.234-134.602 0-185.838-51.236-51.234-134.604-51.234-185.838 0-51.283 51.282-51.283 134.554 0 185.838zm92.919-209.271c29.809 0 59.618 11.347 82.312 34.04 45.387 45.387 45.387 119.237 0 164.623-45.419 45.421-119.203 45.421-164.624 0-21.949-21.948-34.037-51.181-34.037-82.312 0-64.787 52.358-116.351 116.349-116.351z"/></svg>