<svg width="38" height="38" fill="none" xmlns="http://www.w3.org/2000/svg"><path d="M20.56 25.424a.5.5 0 00-.195.68L25 34.45c.27.486.714.838 1.249.991a2.07 2.07 0 001.583-.182 2.07 2.07 0 00.992-1.248 2.07 2.07 0 00-.183-1.584l-1.49-2.684a.44.44 0 11.768-.427L29.41 32a2.94 2.94 0 01.26 2.252 2.943 2.943 0 01-1.41 1.776 2.943 2.943 0 01-2.252.259 2.943 2.943 0 01-1.775-1.41l-4.637-8.344a1.37 1.37 0 01-.12-1.05c.069-.242.2-.455.379-.624l-.97-1.746c-4.703 1.593-10.081-.32-12.621-4.892a10.574 10.574 0 014.11-14.387 10.545 10.545 0 018.045-.924c.617.176 1.222.41 1.797.695a.44.44 0 11-.39.788 9.782 9.782 0 00-1.65-.638 9.662 9.662 0 00-7.375.848 9.695 9.695 0 00-3.769 13.191 9.698 9.698 0 0011.88 4.376l.02-.008a9.833 9.833 0 002.483-1.38l.017-.012c4.957-3.8 5.101-11.396.053-15.335a.44.44 0 01.54-.693c5.41 4.222 5.355 12.285.222 16.503l.97 1.746a1.37 1.37 0 01.73.008c.355.101.649.334.828.656l2.149 3.868a.44.44 0 01-.769.427l-2.149-3.868a.5.5 0 00-.68-.194l-2.767 1.537zm.043-1.03l1.825-1.014-.89-1.601a10.79 10.79 0 01-1.825 1.014l.89 1.601z" fill="#3451A6"/><path d="M19.253 19.814A7.705 7.705 0 018.78 16.822c-2.062-3.712-.72-8.41 2.992-10.473 3.712-2.063 8.41-.72 10.473 2.992a7.705 7.705 0 01-2.992 10.473zm-1.867-13.29a6.802 6.802 0 00-5.187.593 6.83 6.83 0 00-2.65 9.278 6.827 6.827 0 009.277 2.65 6.776 6.776 0 003.243-4.09 6.81 6.81 0 00-4.683-8.43z" fill="#3451A6"/></svg>