<svg xmlns="http://www.w3.org/2000/svg" width="512" height="512" fill="#3451A6"><path d="M120 448a24 24 0 10-24-24 24.027 24.027 0 0024 24zm0-32a8 8 0 11-8 8 8.009 8.009 0 018-8zm280-16a24 24 0 1024 24 24.027 24.027 0 00-24-24zm0 32a8 8 0 118-8 8.009 8.009 0 01-8 8z"/><path d="M480 160h-39.39a111.977 111.977 0 00-16.38-28.91l13.43-13.43a8 8 0 10-11.32-11.32l-12.86 12.86A111.626 111.626 0 00344 88.29V80h16a8 8 0 008-8V48a8 8 0 00-8-8h-48a8 8 0 00-8 8v24a8 8 0 008 8h16v8.29A112.229 112.229 0 00231.39 160H184a8 8 0 00-8 8v24H96a8.019 8.019 0 00-6.95 4.03l-64 112A8.017 8.017 0 0024 312v112a8 8 0 008 8h40.68a48.089 48.089 0 0020.83 32H16a8 8 0 000 16h448a8 8 0 000-16h-37.51a48.089 48.089 0 0020.83-32H480a8 8 0 008-8V168a8 8 0 00-8-8zM320 64v-8h32v8zm16 40a96 96 0 11-96 96 96.115 96.115 0 0196-96zM86.93 232H144v72H45.79zM40 344h16a8 8 0 010 16H40zm32.68 72H40v-40h16a24 24 0 000-48H40v-8h112a8 8 0 008-8v-88a8 8 0 00-8-8H96.07l4.57-8H176v208h-8.68a47.99 47.99 0 00-94.64 0zM120 456a32 32 0 1132-32 32.03 32.03 0 01-32 32zm26.49 8a48.089 48.089 0 0020.83-32h185.36a48.089 48.089 0 0020.83 32zM400 456a32 32 0 1132-32 32.03 32.03 0 01-32 32zm72-40h-24.68a47.99 47.99 0 00-94.64 0H192v-56h280zm0-72H192V176h34.6a112 112 0 10218.8 0H472z"/><path d="M336 288a88 88 0 10-88-88 88.1 88.1 0 0088 88zm0-160a72 72 0 11-72 72 72.081 72.081 0 0172-72z"/><path d="M346.343 221.657a8 8 0 1011.314-11.314L344 196.687V168a8 8 0 00-16 0v32a8 8 0 002.343 5.657zM496 464h-8a8 8 0 000 16h8a8 8 0 000-16z"/></svg>