<svg width="35" height="35" fill="none" xmlns="http://www.w3.org/2000/svg"><path d="M26.088 9.7l.937-.936.8.799.799-.8-.8-.798-.799-.8-.799-.799-.8.8.8.799-1.068 1.067a14.054 14.054 0 00-5.402-2.087V4.513h3.39V0H11.854v4.513h3.39v2.446a13.945 13.945 0 00-5.402 2.087L8.774 7.978l.8-.799-.8-.8-.799.8-.8.8-.798.799.799.799.799-.8.937.938c-3.355 2.583-5.519 6.634-5.519 11.182C3.386 28.668 9.718 35 17.497 35c7.778 0 14.11-6.332 14.11-14.11 0-4.554-2.163-8.606-5.519-11.19zM12.984 3.39V1.13h9.032v2.26h-9.032zm5.643 1.123V6.78h-.662c-.158-.007-.31-.014-.468-.014-.159 0-.31.007-.469.014h-.661V4.513h2.26zm-1.13 29.357c-7.159 0-12.988-5.822-12.988-12.987 0-7 5.574-12.726 12.52-12.974h.936c6.945.248 12.519 5.967 12.519 12.974 0 7.165-5.829 12.987-12.987 12.987z" fill="#3451A6"/><path d="M17.497 10.162c-5.912 0-10.728 4.81-10.728 10.728s4.816 10.72 10.728 10.72c5.911 0 10.727-4.809 10.727-10.72 0-5.912-4.816-10.728-10.727-10.728zm7.165 17.087l-.778-.779-.8.8.779.778a9.551 9.551 0 01-5.801 2.405V29.35h-1.13v1.103a9.551 9.551 0 01-5.801-2.405l.778-.778-.8-.8-.778.779a9.551 9.551 0 01-2.404-5.801h1.102v-1.123H7.927a9.55 9.55 0 012.404-5.801l.779.778.8-.8-.78-.778a9.55 9.55 0 015.802-2.404v1.102h1.13V11.32a9.55 9.55 0 015.8 2.404l-.778.779.8.8.778-.78a9.55 9.55 0 012.405 5.802h-1.103v1.13h1.103a9.532 9.532 0 01-2.405 5.794z" fill="#3451A6"/><path d="M18.062 18.713v-3.466h-1.13v3.466a2.26 2.26 0 00-1.695 2.177 2.261 2.261 0 002.26 2.26 2.261 2.261 0 002.26-2.26c0-1.054-.724-1.93-1.695-2.177zm-.565 3.3a1.13 1.13 0 110-2.261 1.13 1.13 0 010 2.26z" fill="#3451A6"/></svg>