<svg width="147" height="132" viewBox="0 0 147 132" fill="none" xmlns="http://www.w3.org/2000/svg">
<path d="M100.973 106.093L101.262 106.5L100.973 106.093ZM0.69987 122.844C0.478991 123.01 0.43428 123.323 0.600011 123.544L3.30073 127.144C3.46646 127.365 3.77988 127.409 4.00076 127.244C4.22164 127.078 4.26635 126.765 4.10062 126.544L1.69998 123.344L4.89949 120.943C5.12037 120.778 5.16509 120.464 4.99936 120.243C4.83362 120.023 4.52021 119.978 4.29933 120.144L0.69987 122.844ZM143.243 0.445662C143.461 2.03644 143.655 3.61736 143.825 5.18831L144.819 5.08101C144.648 3.50031 144.453 1.90985 144.234 0.309789L143.243 0.445662ZM144.188 8.9888C144.457 12.2104 144.619 15.3886 144.672 18.5222L145.672 18.5053C145.619 15.3486 145.455 12.1483 145.185 8.90573L144.188 8.9888ZM144.682 22.3384C144.644 25.5613 144.486 28.7354 144.205 31.8592L145.201 31.9489C145.484 28.7981 145.643 25.5981 145.682 22.3503L144.682 22.3384ZM143.8 35.6521C143.405 38.8392 142.877 41.972 142.212 45.0492L143.19 45.2603C143.861 42.153 144.394 38.9907 144.792 35.7751L143.8 35.6521ZM141.338 48.7588C140.546 51.8511 139.611 54.885 138.528 57.859L139.468 58.2012C140.562 55.1956 141.507 52.1302 142.306 49.0067L141.338 48.7588ZM137.152 61.4118C135.948 64.3423 134.593 67.2123 133.085 70.0202L133.966 70.4934C135.491 67.655 136.86 64.7539 138.077 61.7919L137.152 61.4118ZM131.213 73.3382C129.612 76.046 127.86 78.6936 125.953 81.2794L126.758 81.8727C128.684 79.26 130.455 76.5843 132.074 73.8473L131.213 73.3382ZM123.632 84.3027C121.681 86.7434 119.585 89.1265 117.342 91.4506L118.062 92.1451C120.326 89.799 122.442 87.3926 124.413 84.9271L123.632 84.3027ZM114.646 94.1466C112.404 96.3115 110.027 98.4227 107.512 100.479L108.145 101.253C110.681 99.18 113.078 97.0505 115.341 94.866L114.646 94.1466ZM104.523 102.847C103.275 103.806 101.995 104.752 100.683 105.685L101.262 106.5C102.584 105.56 103.874 104.606 105.132 103.64L104.523 102.847ZM100.683 105.685C99.2609 106.697 97.7988 107.656 96.3017 108.565L96.8206 109.419C98.3376 108.499 99.82 107.526 101.262 106.5L100.683 105.685ZM92.6558 110.645C89.5846 112.291 86.3924 113.748 83.1201 115.035L83.4862 115.966C86.7914 114.665 90.0193 113.192 93.1281 111.526L92.6558 110.645ZM79.1765 116.494C75.8653 117.644 72.4913 118.633 69.0948 119.483L69.3375 120.453C72.76 119.597 76.1626 118.599 79.5045 117.439L79.1765 116.494ZM64.9956 120.44C61.5334 121.193 58.0652 121.808 54.6334 122.308L54.7776 123.298C58.2301 122.795 61.7211 122.175 65.208 121.418L64.9956 120.44ZM50.4567 122.864C46.8833 123.294 43.3697 123.606 39.9655 123.823L40.0291 124.821C43.4503 124.603 46.9826 124.289 50.5763 123.857L50.4567 122.864ZM35.7537 124.047C32.0544 124.206 28.5186 124.26 25.2156 124.241L25.21 125.241C28.5276 125.26 32.0797 125.206 35.7967 125.046L35.7537 124.047ZM20.997 124.178C16.99 124.081 13.4283 123.888 10.464 123.674L10.3922 124.672C13.3705 124.886 16.9482 125.08 20.9727 125.178L20.997 124.178ZM6.25989 123.327C4.6041 123.172 3.30506 123.028 2.42078 122.922C1.97866 122.869 1.64024 122.826 1.41278 122.796C1.29904 122.781 1.21305 122.769 1.15572 122.761C1.12705 122.757 1.10555 122.754 1.09131 122.752C1.0842 122.751 1.0789 122.75 1.07544 122.75C1.07371 122.75 1.07244 122.75 1.07162 122.749C1.07122 122.749 1.07092 122.749 1.07075 122.749C1.07066 122.749 1.0706 122.749 1.07057 122.749C1.07055 122.749 1.07055 122.749 1.07055 122.749C1.07055 122.749 1.07056 122.749 0.999953 123.244C0.929345 123.739 0.929372 123.739 0.929405 123.739C0.929426 123.739 0.929462 123.739 0.929508 123.739C0.929592 123.739 0.929711 123.739 0.929849 123.739C0.930133 123.739 0.930538 123.739 0.931055 123.74C0.932089 123.74 0.933572 123.74 0.935528 123.74C0.93943 123.741 0.945163 123.742 0.952723 123.743C0.967837 123.745 0.990228 123.748 1.0198 123.752C1.07893 123.76 1.16675 123.772 1.28233 123.787C1.51351 123.817 1.85578 123.861 2.3019 123.915C3.1941 124.021 4.50172 124.167 6.16667 124.323L6.25989 123.327ZM100.973 106.093L101.552 106.907L100.973 106.093ZM0.399791 122.444C-0.0419678 122.776 -0.131383 123.403 0.200076 123.844L5.60152 131.043C5.93298 131.485 6.5598 131.575 7.00156 131.243C7.44332 130.912 7.53274 130.285 7.20127 129.843L2.39999 123.444L8.79903 118.643C9.24079 118.311 9.33021 117.684 8.99875 117.243C8.66729 116.801 8.04047 116.711 7.59871 117.043L0.399791 122.444ZM142.748 0.513599C142.965 2.09973 143.159 3.67589 143.328 5.24195L145.316 5.02737C145.145 3.44178 144.949 1.84656 144.729 0.241852L142.748 0.513599ZM143.69 9.03034C143.958 12.2414 144.12 15.4086 144.172 18.5306L146.172 18.4968C146.118 15.3286 145.954 12.1173 145.683 8.86419L143.69 9.03034ZM144.182 22.3325C144.144 25.543 143.987 28.704 143.707 31.8144L145.699 31.9937C145.983 28.8295 146.143 25.6165 146.182 22.3563L144.182 22.3325ZM143.303 35.5906C142.91 38.7634 142.385 41.8815 141.724 44.9436L143.678 45.3658C144.353 42.2435 144.888 39.0665 145.288 35.8365L143.303 35.5906ZM140.853 48.6348C140.066 51.7115 139.136 54.7297 138.058 57.6879L139.938 58.3723C141.038 55.3509 141.988 52.2697 142.791 49.1307L140.853 48.6348ZM136.69 61.2217C135.492 64.1364 134.145 66.9909 132.644 69.7835L134.406 70.73C135.939 67.8764 137.316 64.9598 138.54 61.9819L136.69 61.2217ZM130.783 73.0836C129.19 75.7768 127.447 78.4103 125.551 80.9827L127.161 82.1694C129.097 79.5432 130.877 76.8535 132.504 74.1019L130.783 73.0836ZM123.241 83.9905C121.3 86.4188 119.215 88.7902 116.982 91.1034L118.421 92.4923C120.696 90.1353 122.823 87.7172 124.803 85.2393L123.241 83.9905ZM114.299 93.7869C112.067 95.942 109.7 98.0441 107.196 100.092L108.462 101.64C111.008 99.5586 113.415 97.4201 115.688 95.2257L114.299 93.7869ZM104.219 102.451C102.975 103.405 101.7 104.348 100.393 105.278L101.552 106.907C102.879 105.964 104.173 105.007 105.437 104.037L104.219 102.451ZM100.393 105.278C98.9813 106.282 97.5294 107.234 96.0422 108.137L97.0801 109.847C98.607 108.92 100.1 107.941 101.552 106.907L100.393 105.278ZM92.4196 110.204C89.3672 111.84 86.193 113.289 82.937 114.57L83.6693 116.431C86.9909 115.124 90.2367 113.643 93.3643 111.967L92.4196 110.204ZM79.0125 116.022C75.7166 117.166 72.357 118.152 68.9734 118.998L69.4589 120.938C72.8943 120.079 76.3112 119.077 79.6685 117.911L79.0125 116.022ZM64.8895 119.952C61.4396 120.701 57.9828 121.315 54.5613 121.814L54.8496 123.793C58.3125 123.288 61.815 122.667 65.3141 121.906L64.8895 119.952ZM50.3969 122.367C46.8336 122.797 43.3294 123.107 39.9336 123.324L40.0609 125.32C43.4906 125.101 47.0322 124.787 50.6361 124.353L50.3969 122.367ZM35.7322 123.548C32.0418 123.706 28.5141 123.759 25.2184 123.741L25.2072 125.741C28.5321 125.76 32.0924 125.706 35.8181 125.546L35.7322 123.548ZM21.0091 123.678C17.011 123.581 13.4571 123.388 10.4999 123.176L10.3563 125.17C13.3416 125.385 16.9273 125.58 20.9605 125.677L21.0091 123.678ZM6.30649 122.83C4.65529 122.675 3.36053 122.531 2.48023 122.425C2.04009 122.373 1.7036 122.33 1.47799 122.3C1.36519 122.285 1.28012 122.274 1.22367 122.266C1.19546 122.262 1.1744 122.259 1.16061 122.257C1.15371 122.256 1.14864 122.255 1.14539 122.255C1.14377 122.255 1.14261 122.255 1.1419 122.254C1.14156 122.254 1.14131 122.254 1.1412 122.254C1.14113 122.254 1.1411 122.254 1.1411 122.254C1.1411 122.254 1.14112 122.254 1.14112 122.254C1.14115 122.254 1.14118 122.254 0.999953 123.244C0.85873 124.234 0.858778 124.234 0.858832 124.234C0.85886 124.234 0.858927 124.234 0.858981 124.234C0.859089 124.234 0.859238 124.234 0.859401 124.234C0.859739 124.234 0.860199 124.234 0.86077 124.235C0.861909 124.235 0.863511 124.235 0.865572 124.235C0.869688 124.236 0.875649 124.237 0.88343 124.238C0.898985 124.24 0.92182 124.243 0.951841 124.247C1.01187 124.255 1.1006 124.267 1.21712 124.283C1.45015 124.313 1.79435 124.357 2.24245 124.411C3.13862 124.518 4.45053 124.665 6.12006 124.821L6.30649 122.83Z" fill="#EF4135"/>
</svg>
