<svg width="27" height="19" viewBox="0 0 27 19" fill="none" xmlns="http://www.w3.org/2000/svg">
<path d="M0.164795 9.10231L8.60229 0.664808C8.82204 0.445064 9.178 0.445064 9.39769 0.664808C9.61743 0.884552 9.61743 1.24051 9.39769 1.4602L1.92037 8.93751H26.4375C26.7484 8.93751 27 9.18911 27 9.50003C27 9.81095 26.7484 10.0625 26.4375 10.0625H1.92037L9.39769 17.5398C9.61743 17.7595 9.61743 18.1155 9.39769 18.3352C9.28784 18.445 9.14388 18.5 8.99996 18.5C8.85605 18.5 8.71214 18.445 8.60224 18.3352L0.164742 9.8977C-0.0549488 9.67801 -0.0549488 9.32205 0.164795 9.10231Z" fill="#2F2D38" fill-opacity="0.3"/>
</svg>
