<svg height="512" viewBox="0 0 512 512" fill="#fff" width="512" xmlns="http://www.w3.org/2000/svg"><g><path d="m336 8h-160a40.04 40.04 0 0 0 -40 40v416a40.04 40.04 0 0 0 40 40h160a40.04 40.04 0 0 0 40-40v-416a40.04 40.04 0 0 0 -40-40zm-144 16h16v16a8 8 0 0 1 -16 0zm168 440a24.032 24.032 0 0 1 -24 24h-160a24.032 24.032 0 0 1 -24-24v-416a24.032 24.032 0 0 1 24-24v16a24 24 0 0 0 48 0v-16h112a24.032 24.032 0 0 1 24 24z"/><path d="m336 440h-48a8 8 0 0 0 0 16h48a8 8 0 0 0 0-16z"/><path d="m336 464h-32a8 8 0 0 0 0 16h32a8 8 0 0 0 0-16z"/><path d="m256 128a24 24 0 1 0 -24-24 24.027 24.027 0 0 0 24 24zm0-32a8 8 0 1 1 -8 8 8.009 8.009 0 0 1 8-8z"/><path d="m200 128a24 24 0 1 0 -24-24 24.027 24.027 0 0 0 24 24zm0-32a8 8 0 1 1 -8 8 8.009 8.009 0 0 1 8-8z"/><path d="m312 128a24 24 0 1 0 -24-24 24.027 24.027 0 0 0 24 24zm0-32a8 8 0 1 1 -8 8 8.009 8.009 0 0 1 8-8z"/><path d="m256 184a24 24 0 1 0 -24-24 24.027 24.027 0 0 0 24 24zm0-32a8 8 0 1 1 -8 8 8.009 8.009 0 0 1 8-8z"/><path d="m200 184a24 24 0 1 0 -24-24 24.027 24.027 0 0 0 24 24zm0-32a8 8 0 1 1 -8 8 8.009 8.009 0 0 1 8-8z"/><path d="m312 184a24 24 0 1 0 -24-24 24.027 24.027 0 0 0 24 24zm0-32a8 8 0 1 1 -8 8 8.009 8.009 0 0 1 8-8z"/><path d="m256 240a24 24 0 1 0 -24-24 24.027 24.027 0 0 0 24 24zm0-32a8 8 0 1 1 -8 8 8.009 8.009 0 0 1 8-8z"/><path d="m288 344a32 32 0 1 0 -32 32 32.036 32.036 0 0 0 32-32zm-32 16a16 16 0 1 1 16-16 16.019 16.019 0 0 1 -16 16z"/><path d="m200 240a24 24 0 1 0 -24-24 24.027 24.027 0 0 0 24 24zm0-32a8 8 0 1 1 -8 8 8.009 8.009 0 0 1 8-8z"/><path d="m312 240a24 24 0 1 0 -24-24 24.027 24.027 0 0 0 24 24zm0-32a8 8 0 1 1 -8 8 8.009 8.009 0 0 1 8-8z"/><path d="m176.44 336h24.23a8 8 0 0 0 7.89-6.677 39.928 39.928 0 0 1 32.763-32.763 8 8 0 0 0 6.677-7.89v-24.231a8 8 0 0 0 -8.879-7.951 80.036 80.036 0 0 0 -70.633 70.633 8 8 0 0 0 7.952 8.879zm55.56-61.974v8.3a55.958 55.958 0 0 0 -37.676 37.674h-8.3a64.579 64.579 0 0 1 45.976-45.974z"/><path d="m241.323 391.44a39.928 39.928 0 0 1 -32.763-32.763 8 8 0 0 0 -7.89-6.677h-24.23a8 8 0 0 0 -7.952 8.879 80.036 80.036 0 0 0 70.633 70.633 7.874 7.874 0 0 0 .879.049 8 8 0 0 0 8-8v-24.231a8 8 0 0 0 -6.677-7.89zm-9.323 22.534a64.579 64.579 0 0 1 -45.973-45.974h8.3a55.958 55.958 0 0 0 37.673 37.676z"/><path d="m343.512 360.879a8 8 0 0 0 -7.952-8.879h-24.23a8 8 0 0 0 -7.89 6.677 39.928 39.928 0 0 1 -32.763 32.763 8 8 0 0 0 -6.677 7.89v24.231a8 8 0 0 0 8 8 7.86 7.86 0 0 0 .879-.049 80.036 80.036 0 0 0 70.633-70.633zm-63.512 53.095v-8.3a55.958 55.958 0 0 0 37.676-37.674h8.3a64.579 64.579 0 0 1 -45.976 45.974z"/><path d="m272.879 256.488a8 8 0 0 0 -8.879 7.951v24.231a8 8 0 0 0 6.677 7.89 39.928 39.928 0 0 1 32.763 32.763 8 8 0 0 0 7.89 6.677h24.23a8 8 0 0 0 7.952-8.879 80.036 80.036 0 0 0 -70.633-70.633zm44.797 63.512a55.958 55.958 0 0 0 -37.676-37.676v-8.3a64.579 64.579 0 0 1 45.973 45.976z"/><path d="m200 440h-24a8 8 0 0 0 -8 8v24a8 8 0 0 0 8 8h24a8 8 0 0 0 8-8v-24a8 8 0 0 0 -8-8zm-8 24h-8v-8h8z"/></g></svg>