<?xml version="1.0" encoding="iso-8859-1"?>
<!-- Generator: Adobe Illustrator 19.0.0, SVG Export Plug-In . SVG Version: 6.00 Build 0)  -->
<svg version="1.1" id="Capa_1" fill="#fff" xmlns="http://www.w3.org/2000/svg" xmlns:xlink="http://www.w3.org/1999/xlink" x="0px" y="0px"
	 viewBox="0 0 512 512" style="enable-background:new 0 0 512 512;" xml:space="preserve">
<g>
	<g>
		<path d="M504.396,0H7.604C3.405,0,0,3.405,0,7.604v496.792C0,508.595,3.405,512,7.604,512h496.792
			c4.199,0,7.604-3.405,7.604-7.604V7.604C512,3.405,508.595,0,504.396,0z M376.65,15.208c-9.23,2.164-18.47,4.548-27.711,7.169
			c-41.516,11.773-83.158,28.156-123.79,48.688c-4.613-2.909-13.329-8.806-22.374-17.04c-10.05-9.149-22.164-22.792-27.304-38.817
			H376.65z M159.663,15.208c7.392,30.068,34.402,52.839,50.07,63.866c-45.605,24.374-77.409,47.377-91.213,57.984
			C92.534,84.366,48.898,37.323,26.605,15.208H159.663z M15.208,25.408c21.852,21.719,66.639,69.844,91.37,121.869
			c-35.976,34.192-74.638,46.365-91.37,50.269V25.408z M15.208,213.162c15.481-3.14,55.121-14.022,94.122-47.845
			c0.443,8.606,0.8,20.558,0.589,35.252c-0.061,4.199,3.295,7.652,7.494,7.711c0.038,0,0.074,0.001,0.112,0.001
			c4.149,0,7.541-3.334,7.601-7.495c0.348-24.23-0.778-41.056-1.421-48.47c6.535-5.162,23.232-17.871,48.037-33.54
			c-0.53,8.403-0.694,19.555,0.508,32.112c3.227,33.7,14.997,62.467,34.134,83.598c-10.828,20.468-20.527,44.69-26.266,72.231
			c-28.263-12.116-50.713-19.164-61.298-22.219c2.674-20.001,4.308-38.331,5.245-54.539c0.242-4.192-2.959-7.787-7.153-8.03
			c-4.195-0.249-7.787,2.959-8.03,7.153c-1.776,30.733-6.087,69.199-15.463,112.413c-29.801,2.719-61.179,24.086-78.209,37.482
			V213.162z M261.16,349.567c29.052-31.624,78.197-33.397,97.883-32.707c-3.981,32.087-10.15,65.909-19.628,97.397
			C315.344,388.197,287.824,366.773,261.16,349.567z M292.019,390.664c-70.218,40.111-175.716,43.463-209.012,43.457
			c17.072-48.655,27.44-94.436,33.614-134.391C142.145,307.347,223.311,334.603,292.019,390.664z M317.664,304.625
			c-7.464-16.654-31.473-64.56-74.478-99.983c1.787-2.399,3.549-4.691,5.265-6.856c20.183-25.449,38.743-40.111,41.699-42.38
			c4.242-2.214,34.56-17.725,74.134-30.381c1.303,21.628,3.772,77.539-0.479,141.383c-0.748,11.242-1.735,23.086-3.022,35.287
			C351.271,301.274,335.342,301.343,317.664,304.625z M302.53,308.198c-22.831,6.556-41.082,17.685-54.448,33.215
			c-18.26-11.004-35.765-20.008-51.059-27.134c-0.897-0.418-1.782-0.823-2.672-1.232c7.669-39.445,24.068-71.92,40.048-95.931
			C271.905,248.428,294.374,290.833,302.53,308.198z M15.208,496.792v-98.063c4.357-3.802,14.243-12.065,26.815-20.302
			c17.632-11.551,33.924-18.722,47.777-21.113c-10.375,43.234-25.884,90.647-48.849,139.477H15.208z M57.735,496.791
			c7.343-16.021,13.898-31.877,19.759-47.48c1.828,0.027,4.074,0.048,6.711,0.048c14.729,0,41.44-0.641,73.116-4.332
			c61.332-7.148,110.722-21.923,146.951-43.928c10.388,9.24,20.375,19.187,29.71,29.875c-8.651,24.664-19.598,47.321-33.434,65.817
			H57.735z M319.123,496.792c16.997-25.703,30.718-59.153,40.865-99.707c2.703-10.803,5.149-22.136,7.352-33.94
			c7.04-3.023,24.565-9.766,47.017-12.794c0.433,25.264,3.968,99.51,29.786,146.441H319.123z M496.792,345.725
			c-5.812-2.518-11.801-4.661-17.912-6.39c-4.041-1.141-8.244,1.206-9.387,5.247c-1.143,4.041,1.205,8.244,5.247,9.387
			c7.61,2.152,15.006,5.019,22.052,8.523v134.301h-34.907c-28.283-42.622-31.883-123.565-32.314-147.809
			c7.406-0.326,15.155-0.161,23.094,0.711c4.173,0.463,7.93-2.554,8.389-6.728s-2.554-7.93-6.728-8.389
			c-35.568-3.906-66.993,4.776-83.941,10.972c3.879-24.336,6.762-50.52,8.609-78.339c0.16-2.406,0.309-4.8,0.45-7.182
			c5.24-4.679,23.686-21.705,43.465-46.49c1.302-1.631,2.573-3.259,3.829-4.885c8.717,15.284,28.787,41.343,70.054,58.048V345.725z
			 M379.239,120.526c25.793-7.263,54.344-12.655,81.654-12.341c-7.931,37.247-31.015,72.201-49.688,95.637
			c-11.453,14.373-22.592,26.165-30.687,34.212C382.676,182.426,380.29,136.702,379.239,120.526z M496.792,250.16
			c-39.762-18.002-55.517-45.615-59.97-55.176c20.849-29.716,34.074-58.539,39.439-85.988c7.007,0.687,13.874,1.826,20.531,3.471
			V250.16z M496.792,96.851c-37.274-8.239-83.625-3.586-137.978,13.893c-22.915,7.37-42.584,15.566-56.223,21.756l13.333-27.218
			c1.847-3.772,0.288-8.326-3.484-10.174c-3.77-1.847-8.326-0.288-10.174,3.484l-22.253,45.425
			c-5.274,4.122-23.304,18.968-43.147,43.903c-7.124,8.951-14.933,19.834-22.539,32.488c-33.03-40.322-28.186-97.349-26.347-111.59
			c12.841-7.641,27.287-15.703,43.164-23.752c32.112-16.28,64.859-29.896,97.653-40.633l-14.563,29.729
			c-1.847,3.772-0.288,8.326,3.484,10.174c1.077,0.527,2.216,0.777,3.34,0.777c2.81,0,5.513-1.565,6.834-4.26l20.863-42.588
			c1.445-0.421,2.89-0.85,4.333-1.259c48.394-13.724,96.696-21.016,143.704-21.729V96.851z"/>
	</g>
</g>
<g>
</g>
<g>
</g>
<g>
</g>
<g>
</g>
<g>
</g>
<g>
</g>
<g>
</g>
<g>
</g>
<g>
</g>
<g>
</g>
<g>
</g>
<g>
</g>
<g>
</g>
<g>
</g>
<g>
</g>
</svg>
