<svg width="178" height="97" viewBox="0 0 178 97" fill="none" xmlns="http://www.w3.org/2000/svg">
<rect x="69" y="30" width="60" height="18" rx="3" fill="#3451A6"/>
<path d="M73.7217 57.4824H72.0518V62H68.9668V49.2031H74.0029C75.5205 49.2031 76.707 49.54 77.5625 50.2139C78.418 50.8877 78.8457 51.8398 78.8457 53.0703C78.8457 53.9609 78.6641 54.6992 78.3008 55.2852C77.9434 55.8711 77.3809 56.3457 76.6133 56.709L79.2852 61.8682V62H75.9805L73.7217 57.4824ZM72.0518 55.1006H74.0029C74.5889 55.1006 75.0283 54.9482 75.3213 54.6436C75.6201 54.333 75.7695 53.9023 75.7695 53.3516C75.7695 52.8008 75.6201 52.3701 75.3213 52.0596C75.0225 51.7432 74.583 51.585 74.0029 51.585H72.0518V55.1006ZM88.6455 56.5771H83.7939V59.627H89.5244V62H80.709V49.2031H89.542V51.585H83.7939V54.2832H88.6455V56.5771ZM93.8662 57.6582V62H90.7812V49.2031H95.8877C96.8662 49.2031 97.7305 49.3848 98.4805 49.748C99.2363 50.1055 99.8193 50.6182 100.229 51.2861C100.646 51.9482 100.854 52.7012 100.854 53.5449C100.854 54.793 100.405 55.792 99.5088 56.542C98.6182 57.2861 97.3936 57.6582 95.835 57.6582H93.8662ZM93.8662 55.2764H95.8877C96.4854 55.2764 96.9395 55.127 97.25 54.8281C97.5664 54.5293 97.7246 54.1074 97.7246 53.5625C97.7246 52.9648 97.5635 52.4873 97.2412 52.1299C96.9189 51.7725 96.4795 51.5908 95.9229 51.585H93.8662V55.2764ZM108.21 59.6094H103.982L103.244 62H99.9482L104.642 49.2031H107.542L112.271 62H108.957L108.21 59.6094ZM104.721 57.2275H107.472L106.092 52.7891L104.721 57.2275ZM116.498 62H113.422V49.2031H116.498V62ZM123.397 57.4824H121.728V62H118.643V49.2031H123.679C125.196 49.2031 126.383 49.54 127.238 50.2139C128.094 50.8877 128.521 51.8398 128.521 53.0703C128.521 53.9609 128.34 54.6992 127.977 55.2852C127.619 55.8711 127.057 56.3457 126.289 56.709L128.961 61.8682V62H125.656L123.397 57.4824ZM121.728 55.1006H123.679C124.265 55.1006 124.704 54.9482 124.997 54.6436C125.296 54.333 125.445 53.9023 125.445 53.3516C125.445 52.8008 125.296 52.3701 124.997 52.0596C124.698 51.7432 124.259 51.585 123.679 51.585H121.728V55.1006Z" fill="#3451A6"/>
<path d="M83.7236 39.0146C83.7236 40.251 83.5273 41.3174 83.1348 42.2139C82.7422 43.1045 82.1914 43.8018 81.4824 44.3057L83.7676 46.0986L82.6162 47.1621L79.918 45.0176C79.4961 45.123 79.0508 45.1758 78.582 45.1758C77.5742 45.1758 76.6807 44.9297 75.9014 44.4375C75.1221 43.9395 74.5156 43.2334 74.082 42.3193C73.6543 41.3994 73.4346 40.3359 73.4229 39.1289V38.2061C73.4229 36.9756 73.6367 35.8887 74.0645 34.9453C74.4922 34.002 75.0957 33.2812 75.875 32.7832C76.6602 32.2793 77.5566 32.0273 78.5645 32.0273C79.5957 32.0273 80.501 32.2764 81.2803 32.7744C82.0654 33.2725 82.6689 33.9902 83.0908 34.9277C83.5127 35.8594 83.7236 36.9492 83.7236 38.1973V39.0146ZM82.0361 38.1885C82.0361 36.6826 81.7344 35.5225 81.1309 34.708C80.5332 33.8877 79.6777 33.4775 78.5645 33.4775C77.5039 33.4775 76.666 33.8848 76.0508 34.6992C75.4414 35.5078 75.1279 36.6328 75.1104 38.0742V39.0146C75.1104 40.4795 75.415 41.6338 76.0244 42.4775C76.6396 43.3213 77.4922 43.7432 78.582 43.7432C79.6719 43.7432 80.5156 43.3477 81.1133 42.5566C81.7109 41.7598 82.0186 40.6201 82.0361 39.1377V38.1885ZM95.334 32.2031V40.9043C95.3281 42.1113 94.9473 43.0986 94.1914 43.8662C93.4414 44.6338 92.4219 45.0645 91.1328 45.1582L90.6846 45.1758C89.2842 45.1758 88.168 44.7979 87.3359 44.042C86.5039 43.2861 86.082 42.2461 86.0703 40.9219V32.2031H87.7402V40.8691C87.7402 41.7949 87.9951 42.5156 88.5049 43.0312C89.0146 43.541 89.7412 43.7959 90.6846 43.7959C91.6396 43.7959 92.3691 43.541 92.873 43.0312C93.3828 42.5215 93.6377 41.8037 93.6377 40.8779V32.2031H95.334ZM99.8076 45H98.1201V32.2031H99.8076V45ZM112.314 40.9395C112.156 42.293 111.655 43.3389 110.812 44.0771C109.974 44.8096 108.857 45.1758 107.463 45.1758C105.951 45.1758 104.738 44.6338 103.824 43.5498C102.916 42.4658 102.462 41.0156 102.462 39.1992V37.9688C102.462 36.7793 102.673 35.7334 103.095 34.8311C103.522 33.9287 104.126 33.2373 104.905 32.7568C105.685 32.2705 106.587 32.0273 107.612 32.0273C108.972 32.0273 110.062 32.4082 110.882 33.1699C111.702 33.9258 112.18 34.9746 112.314 36.3164H110.618C110.472 35.2969 110.152 34.5586 109.66 34.1016C109.174 33.6445 108.491 33.416 107.612 33.416C106.534 33.416 105.688 33.8145 105.072 34.6113C104.463 35.4082 104.158 36.542 104.158 38.0127V39.252C104.158 40.6406 104.448 41.7451 105.028 42.5654C105.608 43.3857 106.42 43.7959 107.463 43.7959C108.4 43.7959 109.118 43.585 109.616 43.1631C110.12 42.7354 110.454 41.9941 110.618 40.9395H112.314ZM117.878 39.0498L116.313 40.6758V45H114.626V32.2031H116.313V38.5312L122 32.2031H124.039L119.003 37.8545L124.435 45H122.413L117.878 39.0498Z" fill="white"/>
<rect x="135" y="30" width="43" height="28" rx="3" fill="#3451A6"/>
<path d="M156.013 40.585H152.172V51H149.087V40.585H145.316V38.2031H156.013V40.585ZM162.429 47.5195L164.978 38.2031H168.423L164.116 51H160.741L156.47 38.2031H159.889L162.429 47.5195Z" fill="white"/>
<rect x="145" y="61" width="24" height="1" rx="0.5" fill="#3451A6"/>
<rect x="153" y="59" width="6" height="1" rx="0.5" fill="#3451A6"/>
</svg>
