<svg width="38" height="38" viewBox="0 0 38 38" fill="none" xmlns="http://www.w3.org/2000/svg">
<path d="M20.5591 25.4245C20.3174 25.5587 20.2305 25.863 20.3648 26.1046L25.0009 34.4491C25.2711 34.9354 25.7146 35.2874 26.2496 35.4402C26.7845 35.5931 27.347 35.5284 27.8333 35.2583C28.3197 34.988 28.6717 34.5445 28.8245 34.0096C28.9774 33.4746 28.9127 32.9122 28.6425 32.4258L27.1515 29.7422C27.0336 29.53 27.11 29.2624 27.3222 29.1445C27.5344 29.0266 27.8021 29.1031 27.9199 29.3152L29.4109 31.9988C29.7953 32.6905 29.8872 33.4904 29.6699 34.2511C29.4525 35.0118 28.9519 35.6424 28.2603 36.0267C27.5687 36.4109 26.7688 36.5029 26.0081 36.2856C25.2473 36.0682 24.6167 35.5676 24.2325 34.8761L19.5963 26.5316C19.4174 26.2095 19.3746 25.837 19.4758 25.4827C19.545 25.2404 19.6759 25.0266 19.8549 24.8582L18.8848 23.1122C14.1818 24.7045 8.80382 22.7921 6.26389 18.2202C3.42376 13.1087 5.2619 6.67357 10.3738 3.83339C12.8384 2.46391 15.7143 2.13627 18.4185 2.90881C19.0364 3.08539 19.6412 3.31932 20.2163 3.60405C20.4338 3.71179 20.5229 3.9755 20.4151 4.19303C20.3073 4.41057 20.0439 4.49965 19.8261 4.39184C19.2987 4.13065 18.7438 3.91606 18.1769 3.75406C15.7095 3.04916 13.0749 3.33816 10.8008 4.60184C6.11411 7.20565 4.42785 13.106 7.03231 17.7931C9.41142 22.0754 14.5173 23.8245 18.9128 22.1691C18.9192 22.1664 18.9254 22.1632 18.9319 22.1607C19.8255 21.8228 20.6687 21.3516 21.4146 20.7813C21.4202 20.777 21.4262 20.7734 21.4321 20.7694C26.389 16.969 26.5334 9.37323 21.4847 5.434C21.2933 5.28461 21.2593 5.00845 21.4086 4.81697C21.5579 4.62569 21.8339 4.59147 22.0256 4.74084C27.4359 8.96302 27.3802 17.0265 22.2473 21.2439L23.2175 22.99C23.4549 22.9271 23.7057 22.9288 23.9479 22.9981C24.3022 23.0993 24.5958 23.3324 24.7748 23.6544L26.9237 27.5221C27.0416 27.7344 26.9651 28.002 26.7529 28.1199C26.5407 28.2377 26.2731 28.1613 26.1552 27.9491L24.0063 24.0814C23.8721 23.8397 23.5678 23.7528 23.3262 23.8871L20.5591 25.4245ZM20.6028 24.3944L22.4284 23.3801L21.5388 21.7788C20.9851 22.1611 20.3737 22.506 19.7131 22.7932L20.6028 24.3944Z" fill="#3451A6"/>
<path d="M19.2529 19.8136C15.5374 21.8779 10.8445 20.5374 8.78006 16.8217C6.71763 13.1095 8.05979 8.41135 11.772 6.34879C15.4842 4.28637 20.1824 5.62855 22.2448 9.34068C24.3093 13.0563 22.9686 17.7491 19.2529 19.8136ZM17.3857 6.52417C15.7058 6.04426 13.8432 6.20381 12.1989 7.11731C8.91046 8.94439 7.72151 13.1062 9.5486 16.3946C11.3769 19.6856 15.535 20.8734 18.826 19.045C20.4163 18.1615 21.5681 16.7087 22.0693 14.9543C23.1123 11.3032 20.9919 7.55439 17.3857 6.52417Z" fill="#3451A6"/>
</svg>
