<svg width="35" height="35" viewBox="0 0 35 35" fill="none" xmlns="http://www.w3.org/2000/svg">
<path d="M26.0882 9.70079L27.0252 8.76378L27.8244 9.56299L28.6236 8.76378L27.8244 7.96457L27.0252 7.16535L26.226 6.36614L25.4268 7.16535L26.226 7.96457L25.1581 9.03248C23.5528 7.99213 21.7201 7.26181 19.7565 6.94488V4.51279H23.1463V0H11.8539V4.51279H15.2437V6.95866C13.2801 7.27559 11.4475 7.99902 9.84214 9.04626L8.77422 7.97835L9.57343 7.17913L8.77422 6.37992L7.97501 7.17913L7.1758 7.97835L6.37658 8.77756L7.1758 9.57677L7.97501 8.77756L8.91202 9.71457C5.5567 12.2982 3.39332 16.3494 3.39332 20.8967C3.38643 28.6683 9.71812 35 17.4967 35C25.2752 35 31.6069 28.6683 31.6069 20.8898C31.6069 16.3356 29.4435 12.2844 26.0882 9.70079ZM12.9839 3.38976V1.12992H22.0163V3.38976H19.7565H15.2437H12.9839ZM18.6266 4.51279V6.77953H17.9652C17.8067 6.77264 17.6551 6.76575 17.4967 6.76575C17.3382 6.76575 17.1866 6.77264 17.0282 6.77953H16.3667V4.51279H18.6266ZM17.4967 33.8701C10.3382 33.8701 4.50946 28.0482 4.50946 20.8829C4.50946 13.8829 10.0833 8.15748 17.0282 7.90945H17.9652C24.91 8.15748 30.4839 13.876 30.4839 20.8829C30.4839 28.0482 24.6551 33.8701 17.4967 33.8701Z" fill="#3451A6"/>
<path d="M17.4966 10.1624C11.5852 10.1624 6.76929 14.9714 6.76929 20.8897C6.76929 26.808 11.5852 31.6102 17.4966 31.6102C23.4081 31.6102 28.224 26.8011 28.224 20.8897C28.224 14.9783 23.4081 10.1624 17.4966 10.1624ZM24.662 27.249L23.8835 26.4704L23.0842 27.2696L23.8628 28.0482C22.2988 29.4399 20.2801 30.3218 18.0616 30.4527V29.3503H16.9317V30.4527C14.7132 30.3218 12.6945 29.4399 11.1305 28.0482L11.9091 27.2696L11.1098 26.4704L10.3313 27.249C8.93956 25.685 8.05767 23.6663 7.92677 21.4478H9.02913V20.3247H7.92677C8.05767 18.1062 8.93956 16.0875 10.3313 14.5236L11.1098 15.3021L11.9091 14.5029L11.1305 13.7244C12.6945 12.3326 14.7132 11.4507 16.9317 11.3198V12.4222H18.0616V11.3198C20.2801 11.4507 22.2988 12.3326 23.8628 13.7244L23.0842 14.5029L23.8835 15.3021L24.662 14.5236C26.0537 16.0875 26.9356 18.1062 27.0665 20.3247H25.9642V21.4547H27.0665C26.9356 23.6732 26.0537 25.685 24.662 27.249Z" fill="#3451A6"/>
<path d="M18.0616 18.7126V15.2471H16.9317V18.7126C15.9602 18.9675 15.2368 19.8425 15.2368 20.8898C15.2368 22.1368 16.2496 23.1496 17.4967 23.1496C18.7437 23.1496 19.7565 22.1368 19.7565 20.8898C19.7565 19.8357 19.0331 18.9607 18.0616 18.7126ZM17.4967 22.0128C16.8766 22.0128 16.3667 21.5099 16.3667 20.8829C16.3667 20.2628 16.8697 19.753 17.4967 19.753C18.1167 19.753 18.6266 20.2559 18.6266 20.8829C18.6266 21.5099 18.1167 22.0128 17.4967 22.0128Z" fill="#3451A6"/>
</svg>
