<?xml version="1.0" encoding="iso-8859-1"?>
<!-- Generator: Adobe Illustrator 19.0.0, SVG Export Plug-In . SVG Version: 6.00 Build 0)  -->
<svg version="1.1" id="Capa_1" fill="#3451A6" xmlns="http://www.w3.org/2000/svg" xmlns:xlink="http://www.w3.org/1999/xlink" x="0px" y="0px"
	 viewBox="0 0 508 508" style="enable-background:new 0 0 508 508;" xml:space="preserve">
<g>
	<g>
		<path d="M378.65,140.8l13.6-13.6l11.6,11.6l11.6-11.6l-11.6-11.6l-11.6-11.6l-11.6-11.6l-11.6,11.6l11.6,11.6l-15.5,15.5
			c-23.3-15.1-49.9-25.7-78.4-30.3V65.5h49.2V0h-163.9v65.5h49.2V101c-28.5,4.6-55.1,15.1-78.4,30.3l-15.5-15.5l11.6-11.6
			l-11.6-11.6l-11.6,11.6l-11.6,11.6l-11.6,11.6l11.6,11.6l11.6-11.6l13.6,13.6c-48.7,37.5-80.1,96.3-80.1,162.3
			c-0.1,112.8,91.8,204.7,204.7,204.7s204.8-91.9,204.8-204.8C458.75,237.1,427.35,178.3,378.65,140.8z M188.45,49.2V16.4h131.1
			v32.8h-32.8h-65.5H188.45z M270.35,65.5v32.9h-9.6c-2.3-0.1-4.5-0.2-6.8-0.2s-4.5,0.1-6.8,0.2h-9.6V65.5H270.35z M253.95,491.6
			c-103.9,0-188.5-84.5-188.5-188.5c0-101.6,80.9-184.7,181.7-188.3h13.6c100.8,3.6,181.7,86.6,181.7,188.3
			C442.45,407.1,357.85,491.6,253.95,491.6z"/>
	</g>
</g>
<g>
	<g>
		<path d="M253.95,147.5c-85.8,0-155.7,69.8-155.7,155.7s69.9,155.6,155.7,155.6s155.7-69.8,155.7-155.6S339.75,147.5,253.95,147.5z
			 M357.95,395.5l-11.3-11.3l-11.6,11.6l11.3,11.3c-22.7,20.2-52,33-84.2,34.9v-16h-16.4v16c-32.2-1.9-61.5-14.7-84.2-34.9
			l11.3-11.3l-11.6-11.6l-11.3,11.3c-20.2-22.7-33-52-34.9-84.2h16V295h-16c1.9-32.2,14.7-61.5,34.9-84.2l11.3,11.3l11.6-11.6
			l-11.3-11.3c22.7-20.2,52-33,84.2-34.9v16h16.4v-16c32.2,1.9,61.5,14.7,84.2,34.9l-11.3,11.3l11.6,11.6l11.3-11.3
			c20.2,22.7,33,52,34.9,84.2h-16v16.4h16C390.95,343.6,378.15,372.8,357.95,395.5z"/>
	</g>
</g>
<g>
	<g>
		<path d="M262.15,271.6v-50.3h-16.4v50.3c-14.1,3.7-24.6,16.4-24.6,31.6c0,18.1,14.7,32.8,32.8,32.8s32.8-14.7,32.8-32.8
			C286.75,287.9,276.25,275.2,262.15,271.6z M253.95,319.5c-9,0-16.4-7.3-16.4-16.4c0-9,7.3-16.4,16.4-16.4c9,0,16.4,7.3,16.4,16.4
			C270.35,312.2,262.95,319.5,253.95,319.5z"/>
	</g>
</g>
<g>
</g>
<g>
</g>
<g>
</g>
<g>
</g>
<g>
</g>
<g>
</g>
<g>
</g>
<g>
</g>
<g>
</g>
<g>
</g>
<g>
</g>
<g>
</g>
<g>
</g>
<g>
</g>
<g>
</g>
</svg>
